<svg width="48" height="48" viewBox="0 0 48 48" fill="none" xmlns="http://www.w3.org/2000/svg">
<rect width="48" height="48" rx="10" fill="#1C1D20"/>
<path d="M13.895 32L20.51 17.3H23.198L29.834 32H26.978L21.287 18.749H22.379L16.709 32H13.895ZM16.94 28.598L17.675 26.456H25.613L26.348 28.598H16.94ZM35.7202 19.127L32.9062 20.681V20.219L35.7202 21.773L34.9012 23.201L32.1922 21.626L32.4652 21.479L32.4862 24.482H30.8902L30.9112 21.479L31.1842 21.626L28.4962 23.201L27.6562 21.773L30.4912 20.219V20.681L27.6562 19.127L28.4962 17.678L31.1842 19.274L30.9112 19.442L30.8902 16.418H32.4862L32.4652 19.442L32.1922 19.274L34.9012 17.678L35.7202 19.127Z" fill="white"/>
</svg>
